# xmcd
#
# Track frame offsets:
#	150
#	23833
#	50003
#	74372
#	89393
#	109328
#	137603
#	160548
#	180798
#	196995
#
# Disc length: 2850 seconds
#
# Revision: 1
# Processed by: cddbd v1.5.2PL0 Copyright (c) Steve Scherf et al.
# Submitted via: EZCDAudioConverter 8.0.2.1
#
DISCID=7d0b200a
DTITLE=Hương Lan, Phương Lam - Ngẫu Hứng Lý Qua Cầu
DYEAR=1994
DGENRE=country
TTITLE0=Phương Lam - Ngẫu Hứng Lý Qua Cầu
TTITLE1=Hương Lan - Một mai em đi
TTITLE2=Phương Lam - Hình bóng quê nhà
TTITLE3=Hương Lan - Xin làm chim ưng núi
TTITLE4=Phương Lam - Em về kẻo mưa
TTITLE5=Phương Lam - Lối thu xưa
TTITLE6=Hương Lan - Giọng ca dĩ vãng
TTITLE7=Phương Lam - Hoa sứ nhà nàng 2
TTITLE8=Hương Lan - Tình em biển rông sông dài
TTITLE9=Phương Lam - Tình yêu trả lại trang sao
EXTD=
EXTT0=
EXTT1=
EXTT2=
EXTT3=
EXTT4=
EXTT5=
EXTT6=
EXTT7=
EXTT8=
EXTT9=
PLAYORDER=
